# xmcd
#
# Track frame offsets:
#	150
#	13665
#	27366
#	39296
#	52844
#	66001
#	80165
#	91501
#	109579
#	125147
#	137912
#	155659
#	169742
#	182677
#	195534
#
# Disc length: 2884 seconds
#
# Revision: 0
# Processed by: cddbd v1.5.1PL0 Copyright (c) Steve Scherf et al.
# Submitted via: audiograbber 1.83.01
#
DISCID=c00b420f
DTITLE=Truck Stop  - Arizona
DYEAR=1900
DGENRE=
TTITLE0=Arizona-Arizona 
TTITLE1=Tausend Meilen 
TTITLE2=Immer in der Küche 
TTITLE3=Es ist kalt 
TTITLE4=Der Trabbi und der Truck 
TTITLE5=Papa werden ist so leicht 
TTITLE6=Kein Bier, kein Wein, kein Nikotin 
TTITLE7=Kleine Cowboys werden gross 
TTITLE8=Square Dance - Darling 
TTITLE9=Lass doch mal den Cowboy ran 
TTITLE10=Morgen werden wir uns nicht mehr sehn 
TTITLE11=Du brauchst'n ofen 
TTITLE12=Kleine Dampflok 
TTITLE13=Ohne dich steh ich im Regen 
TTITLE14=Fluss im Abendwind 
EXTD=
EXTT0=
EXTT1=
EXTT2=
EXTT3=
EXTT4=
EXTT5=
EXTT6=
EXTT7=
EXTT8=
EXTT9=
EXTT10=
EXTT11=
EXTT12=
EXTT13=
EXTT14=
PLAYORDER=
